<svg xmlns="http://www.w3.org/2000/svg" width="347" height="54" version="1.2"><style>.s0{fill:none;stroke:#fff}.s1{fill:#fff}</style><path id="Layer" fill-rule="evenodd" d="M208 13h98.2c53.1 0 53.1 51 0 51H208" class="s0"/><path fill-rule="evenodd" d="M139 13H40.8c-53.1 0-53.1 51 0 51H139" class="s0"/><path d="m169.5 4.4 4.3-4.4 4.3 4.4-4.3 4.3zM178.9 7.8l3-3 2.9 3-2.9 3zM183.6 11.3l1.7-1.7 1.7 1.7-1.7 1.7zM160 11.3l1.7-1.7 1.7 1.7-1.7 1.7zM163.2 7.8l2.9-3 3 3-3 3zM169.5 78.6l4.3 4.4 4.3-4.4-4.3-4.3zM178.9 75.2l3 3 2.9-3-2.9-3zM183.6 71.7l1.7 1.7 1.7-1.7-1.7-1.7zM160 71.7l1.7 1.7 1.7-1.7-1.7-1.7zM163.2 75.2l2.9 3 3-3-3-3z" class="s1"/></svg>