<svg xmlns="http://www.w3.org/2000/svg" width="361" height="435" fill="none"><path stroke="#243B73" d="M154.916 14.748H35c-11.046 0-20 8.954-20 20V414c0 11.046 8.954 20 20 20h288c11.046 0 20-8.954 20-20V34.748c0-11.046-8.954-20-20-20H204.231"/><path fill="#243B73" d="M174.859 4.957 179.804 0l4.945 4.957-4.945 4.957zM185.718 8.839l3.387-3.396 3.387 3.396-3.387 3.395zM191.148 12.817l1.926-1.93 1.926 1.93-1.926 1.93zM164 12.817l1.926-1.93 1.926 1.93-1.926 1.93zM167.62 8.839l3.387-3.396 3.387 3.396-3.387 3.395z"/><rect width="360" height="404" x=".5" y="22.5" fill="#E2D3CE" stroke="#243B73" rx="19.5"/></svg>