<svg xmlns="http://www.w3.org/2000/svg" width="227" height="83" fill="none"><path stroke="#fff" d="M136 13h64.057c34.591 0 34.591 51 0 51H136M91 13H26.943c-34.59 0-34.59 51 0 51H91"/><path fill="#fff" d="M109.458 4.37 113.765 0l4.306 4.37-4.306 4.37zM118.916 7.791l2.95-2.993 2.95 2.993-2.95 2.994zM123.645 11.298l1.678-1.702L127 11.298 125.323 13zM100 11.298l1.678-1.702 1.677 1.702L101.678 13zM103.153 7.791l2.95-2.993 2.95 2.993-2.95 2.994zM109.458 78.63l4.307 4.37 4.306-4.37-4.306-4.369zM118.916 75.209l2.95 2.993 2.95-2.993-2.95-2.994zM123.645 71.702l1.678 1.702L127 71.702 125.323 70zM100 71.702l1.678 1.702 1.677-1.702L101.678 70zM103.153 75.209l2.95 2.993 2.95-2.993-2.95-2.994z"/></svg>