<svg xmlns="http://www.w3.org/2000/svg" width="49" height="43" fill="none"><rect width="49" height="43" fill="#fff" rx="4"/><path fill="#F80B10" d="M22.82 13.213a2.053 2.053 0 0 0-1.248 1.196c-.16.426-.133 1.098.062 1.513.174.375.549.75.939.945.277.133.359.149.82.149.458 0 .55-.016.827-.144.395-.185.79-.58.98-.985.123-.267.144-.37.144-.796 0-.426-.02-.528-.144-.8a2.194 2.194 0 0 0-.985-.98c-.246-.114-.39-.144-.744-.155-.267-.01-.524.016-.652.057ZM3.503 18.237c-.334.18-.472.477-.498 1.103-.036.796.118 1.222.513 1.427.17.087.703.098 1.499.03.297-.025.456-.02.472.016l.18.873c.63 3.202 1.867 5.742 3.587 7.38C10.606 30.347 12.15 31 13.849 31c1.098 0 2.022-.22 3.079-.739 2.437-1.2 4.434-3.71 5.511-6.948.38-1.14.396-1.591.062-1.91-.22-.215-.626-.359-.985-.359-.421 0-.554.17-1.252 1.545-.868 1.704-1.489 2.597-2.428 3.49-.75.718-1.632 1.241-2.473 1.483-.483.138-1.545.195-2.012.107-2.191-.415-4.023-2.309-4.942-5.11-.185-.555-.513-1.92-.472-1.956.005-.005.457-.046 1.006-.093 1.103-.087 1.288-.143 1.452-.446.082-.144.097-.246.077-.61-.046-.745-.272-1.166-.693-1.284-.118-.03-1.267-.051-3.12-.051h-2.93l-.226.118ZM36.367 21.819c-.354.036-.56.144-.63.334-.073.18-.068 5.285 0 5.716.076.457.338 1.001.64 1.299.498.498 1.273.739 2.207.688.626-.036 1.083-.17 1.504-.442l.313-.205.133.226c.252.436.508.487 1.135.226.415-.175.739-.437.739-.596 0-.056-.062-.272-.14-.482l-.143-.38-.025-3.053c-.016-1.678-.047-3.085-.072-3.126-.195-.303-1.612-.303-1.807 0-.025.041-.056 1.237-.071 2.664-.026 2.401-.031 2.607-.124 2.77-.236.453-.651.673-1.252.663-.59-.005-.924-.21-1.031-.631-.036-.154-.057-1.063-.057-2.792v-2.56l-.133-.134c-.18-.18-.596-.247-1.186-.185ZM44.655 21.819c-.339.036-.539.149-.61.339-.031.082-.041 1.467-.036 3.69l.015 3.561.128.128c.334.334 1.607.283 1.796-.072.031-.066.052-1.334.052-3.71 0-3.982.015-3.777-.324-3.885-.225-.072-.667-.092-1.02-.051ZM29.84 21.906c-.282.139-.39.41-.39.96.005.81.2 1.021.923 1.01.226-.004.508-.025.632-.04l.215-.031v2.735c0 2.089.016 2.771.067 2.869.113.226.36.308.95.308.595 0 .83-.072.928-.287.041-.093.057-.95.057-2.946V23.66h.195c.503-.01 1.236-.097 1.38-.169a.588.588 0 0 0 .22-.241c.098-.231.037-.821-.107-1.078-.205-.364-.174-.36-2.674-.36-2.011 0-2.237.011-2.396.093Z"/></svg>