<svg xmlns="http://www.w3.org/2000/svg" width="408" height="455" fill="none"><path stroke="#243B73" d="M175.259 15H37c-11.046 0-20 8.954-20 20v399c0 11.046 8.954 20 20 20h331c11.046 0 20-8.954 20-20V35c0-11.046-8.954-20-20-20H231.038"/><rect width="407" height="422" x=".5" y="23.5" fill="#E2D3CE" stroke="#243B73" rx="19.5"/><path fill="#243B73" d="M199.859 4.942 204.804 0l4.944 4.942-4.944 4.943zM210.718 8.813l3.387-3.386 3.387 3.386-3.387 3.386zM216.147 12.78l1.926-1.926 1.926 1.925-1.926 1.925zM189 12.78l1.926-1.926 1.926 1.925-1.926 1.925zM192.62 8.813l3.387-3.386 3.387 3.386-3.387 3.386z"/></svg>