<svg xmlns="http://www.w3.org/2000/svg" width="342" height="381" fill="none"><path stroke="#243B73" d="M146.769 11H26C14.954 11 6 19.954 6 31v329c0 11.046 8.954 20 20 20h290c11.046 0 20-8.954 20-20V31c0-11.046-8.954-20-20-20H196.385"/><rect width="341" height="356" x=".5" y="17.5" fill="#E2D3CE" stroke="#243B73" rx="19.5"/><path fill="#243B73" d="M166.859 4.943 171.804 0l4.944 4.943-4.944 4.942zM177.718 8.813l3.387-3.386 3.387 3.386-3.387 3.386zM183.147 12.78l1.926-1.925 1.926 1.925-1.926 1.924zM156 12.78l1.926-1.925 1.926 1.925-1.926 1.924zM159.62 8.813l3.387-3.386 3.387 3.386-3.387 3.386z"/></svg>