<svg xmlns="http://www.w3.org/2000/svg" width="54" height="54" fill="none"><path fill="#243B73" d="M11.02 2.439c-.36.225-1.128.45-1.624.45-.54 0-1.668.63-2.48 1.394-1.443 1.35-1.488 1.53-1.669 5.623-.18 3.644-.316 4.228-.992 4.228C2.496 14.134 2 15.53 2 20.522c0 4.903.18 5.488 2.03 5.848.856.135.901.63 1.172 9.806.316 10.617.812 14.71 1.804 15.34.36.225 2.12.405 3.924.405 3.653 0 4.6-.495 4.6-2.43 0-.629.135-1.214.36-1.259.903-.18 20.701-.27 21.423-.045.451.09.767.63.767 1.305 0 .585.225 1.08.45 1.08.271 0 .452.314.452.674 0 1.035 7.306.99 8.163-.045.947-1.17 1.398-5.488 1.623-15.61.136-8.591.226-9.31.992-9.31.452 0 1.173-.36 1.579-.856.631-.674.722-1.619.631-5.488l-.135-4.678-1.398-.675c-1.398-.675-1.443-.764-1.669-4.453-.315-4.589-1.759-7.243-3.878-7.243-.541 0-.947-.224-.947-.45 0-.584-31.976-.584-32.923 0Zm34.366 2.249C47.054 6.398 47.1 6.982 47.1 26.37v19.028l-1.218.54c-.902.45-5.773.585-19.258.585-17.904 0-18.04 0-19.077-.99L6.51 44.59V25.74c0-12.235.135-18.803.451-18.803.27 0 .45-.27.45-.63.001-.81 1.76-1.934 3.428-2.204.722-.09 8.615-.18 17.59-.135 13.89.045 16.37.135 16.957.72ZM5.157 19.712c0 3.734-.27 4.769-1.173 4.769-.496 0-.631-.9-.631-4.049 0-3.733.045-4.048.902-4.048.812 0 .902.314.902 3.328Zm45.1.72c0 3.284-.136 4.049-.677 4.049s-.676-.765-.676-4.049c0-3.284.135-4.048.676-4.048s.677.764.677 4.048Zm-37.072 27.8c.27.09.54.675.54 1.26 0 1.034-.134 1.08-2.886 1.08-2.931 0-3.427-.316-3.427-2.07 0-.54.586-.675 2.616-.585 1.398.045 2.841.18 3.157.315Zm32.922.855c-.135 1.214-.18 1.26-3.066 1.26-2.48 0-2.932-.136-3.067-.855-.226-1.17.45-1.485 3.563-1.575l2.706-.09-.136 1.26Z"/><path fill="#243B73" d="M14.418 4.457c-.926 1.312-.975 2.332-.195 4.033l.535 1.214H27.13c13.784 0 13.784 0 13.784-3.158 0-3.157-.048-3.157-13.589-3.157-12.03 0-12.177 0-12.907 1.068Zm24.45 2.187.147 1.117H27.568c-10.813 0-11.495-.049-11.495-.874 0-.486.147-1.07.341-1.264.195-.145 5.26-.243 11.3-.194 11.008.146 11.008.146 11.155 1.215ZM8.962 11.842C7.55 13.445 7.306 14.806 7.306 21.85c0 9.037.292 9.814 3.946 10.688 3.068.729 31.026.243 32.828-.583 1.9-.826 2.192-2.429 2.192-10.785 0-7.628-.048-7.919-1.12-8.94-1.12-1.068-1.315-1.068-18.412-1.068-13.345.048-17.388.194-17.778.68Zm34.583 1.555c.681.243.779 1.409.779 8.064 0 6.073-.146 7.92-.682 8.454-1.023 1.02-32.683 1.02-33.706 0-.925-.972-1.022-15.012-.048-16.081.487-.583 3.41-.68 16.755-.729 8.865 0 16.463.146 16.902.292ZM9.84 36.91c-3.264 1.993-3.167 6.414.194 8.017 4.822 2.283 9.254-3.207 5.699-6.996-1.803-1.943-3.848-2.283-5.894-1.02Zm3.993 1.75c1.023.388 1.023 3.4.049 4.372-1.12 1.118-3.264.632-4.092-.874-1.46-2.527 1.023-4.664 4.043-3.498ZM39.94 36.28c-.974.388-1.607 1.068-2.679 2.914-.78 1.312-.78 1.7-.292 2.964.974 2.331 2.24 3.157 4.773 3.157 1.851 0 2.436-.242 3.41-1.311 1.656-1.944 1.412-4.956-.585-6.948-.73-.68-3.604-1.166-4.627-.777Zm3.702 2.768c.925.972.877 3.207-.146 3.984-1.17.875-2.971.826-3.848 0-.828-.874-.877-3.012-.049-3.935.78-.923 3.117-.923 4.043-.049Z"/></svg>