<svg xmlns="http://www.w3.org/2000/svg" width="54" height="52" fill="none"><path stroke="#243B73" stroke-width="2" d="M8.163 21.693C5.549 20.767 3.355 20.395 2 20.667c.581 6.728 3.116 20.93 8.605 23.916L6.419 51h43.023L52 45.983c-.734.076-1.598.12-2.558.12m-41.28-24.41v-4.41h16.629l22.674 19.424M8.163 21.693c2.172.77 4.634 1.923 7.145 3.407m34.134 21.003V38.4l-1.977-1.693m1.977 9.396c-1.417 0-3.043-.101-4.768-.352m0 0v-4.317l-4.757-4.075m4.757 8.392a31.873 31.873 0 0 1-4.757-1.058m-14.312-11.41A34.766 34.766 0 0 1 28.628 37a17.52 17.52 0 0 0 1.977 2.35m-5-6.067V25.1l5 4.283m-5 3.9a42.733 42.733 0 0 0-4.17-3.9m9.17 0v9.966m0-9.966 4.554 3.9m-4.554 6.066c1.367 1.365 2.917 2.472 4.554 3.365m0-9.43v9.43m0-9.43 4.758 4.075m-4.758 5.355a25.694 25.694 0 0 0 4.758 1.979m0-7.334v7.334m-18.481-15.31V25.1h-6.128m6.128 4.283a49.144 49.144 0 0 0-6.128-4.283m-4.238-8.166V10.75h13.72m22.675 25.957v-7.324L43.553 25.8m0 0V12.967c-1.204-3.383-4.87-5.273-6.437-1.167v8.107m6.437 5.893-6.437-5.893m0 0L30.94 14.25m0 0-3.823-3.5h-2.325m6.148 3.5V5.734c0-2.45-3.823-7.117-6.148-3.267v8.284"/></svg>