<svg xmlns="http://www.w3.org/2000/svg" width="54" height="54" fill="none"><mask id="a" fill="#fff"><path d="M52 27c0 13.807-11.193 25-25 25S2 40.807 2 27 13.193 2 27 2c11.87 0 21.807 8.272 24.363 19.366A25.08 25.08 0 0 1 52 27Z"/></mask><path fill="#243B73" d="m9.218 27 .85.528.5-.806-.778-.542-.572.82Zm-5.81-4.05-.948-.316-.237.71.614.427.571-.82Zm.88-2.64v-1h-.72l-.228.684.949.316Zm6.867 0 .642-.767-.279-.233h-.363v1Zm6.514 5.458.974-.225-.075-.327-.257-.215-.642.767ZM20.838 39.5l-.974.225.255 1.106 1.065-.393-.346-.938Zm3.345-1.232.346.938.654-.241v-.697h-1Zm0-6.867-.745-.666-.255.284v.382h1Zm8.979-10.035.926-.378-.605-1.48-1.066 1.191.745.667Zm3.521 8.627-.926.378.144.353.343.168.44-.899Zm7.57 3.697-.438.899.903.441.436-.906-.9-.434Zm2.29-4.753.9.433.341-.707-.607-.5-.635.774Zm-4.93-4.05-.8-.6-.574.766.739.607.635-.773Zm2.64-3.52v-1h-.5l-.3.4.8.6ZM25.592 39.5l-.316-.949-.683.228v.721h1Zm0 3.873h-1v1h1v-1Zm3.874 0v1h1.292l-.324-1.25-.968.25ZM5.138 35.451l4.93-7.923-1.699-1.056-4.93 7.922 1.699 1.057ZM9.79 26.18l-5.81-4.05-1.143 1.641 5.81 4.05L9.79 26.18Zm-5.433-2.913.88-2.64-1.897-.633-.88 2.64 1.897.633ZM4.29 21.31h6.866v-2H4.289v2Zm6.224-.234 6.514 5.458 1.284-1.533-6.514-5.458-1.284 1.533Zm6.182 4.916 3.169 13.733 1.948-.45-3.169-13.732-1.948.45Zm4.489 14.446 3.345-1.232-.692-1.877-3.345 1.233.692 1.876Zm4-2.17V31.4h-2v6.867h2Zm-.256-6.2 8.98-10.035-1.491-1.334-8.98 10.036 1.491 1.333Zm7.308-10.324 3.521 8.627 1.852-.756-3.521-8.627-1.852.756Zm4.008 9.148 7.57 3.697.878-1.797-7.57-3.698-.878 1.797Zm8.91 3.232 2.29-4.754-1.803-.867-2.288 4.753 1.801.868Zm2.023-5.96-4.93-4.05-1.27 1.546 4.93 4.05 1.27-1.546Zm-4.764-2.677 2.64-3.52-1.6-1.2-2.64 3.52 1.6 1.2Zm1.84-3.12h7.11v-2h-7.11v2ZM24.592 39.5v3.873h2V39.5h-2Zm1 4.873h3.874v-2h-3.873v2Zm4.842-1.25c-.225-.87-.71-2.15-1.47-3.15-.751-.987-2.02-1.978-3.688-1.422l.633 1.898c.445-.149.907.005 1.462.735.546.717.941 1.724 1.127 2.44l1.936-.502Zm20.93-21.757-1.95.45 1.95-.45ZM50 27c0 12.703-10.297 23-23 23v4c14.912 0 27-12.088 27-27h-4ZM27 50C14.297 50 4 39.703 4 27H0c0 14.912 12.088 27 27 27v-4ZM4 27C4 14.297 14.297 4 27 4V0C12.088 0 0 12.088 0 27h4ZM27 4c10.918 0 20.063 7.609 22.414 17.815l3.898-.898C50.552 8.936 39.822 0 27 0v4Zm22.414 17.815c.383 1.665.586 3.4.586 5.185h4c0-2.09-.238-4.126-.688-6.083l-3.898.898Z" mask="url(#a)"/></svg>