<svg xmlns="http://www.w3.org/2000/svg" width="54" height="54" fill="none"><path stroke="#243B73" stroke-width="2" d="M34.732 52V32.303m0 19.697h-7.474m7.474 0h8.634m-8.634-19.697V7.556H52V52h-8.634m-8.634-19.697h-7.474m-8.763 0L18.366 52m.129-19.697-.129-10.101h-8.183m8.312 10.101h8.763M18.366 52h-8.183m8.183 0h8.183M10.183 22.202H2V52h8.183m0-29.798V2h17.075v30.303M10.183 52v-6.06m0 6.06h16.366m0 0h.709m0-6.06V52m16.108 0v-6.06"/><path fill="#243B73" d="M13.402 4.545h2.062v2.02h-2.062zM13.402 9.596h2.062v2.02h-2.062zM5.155 24.242h2.062v2.02H5.155zM5.155 28.788h2.062v2.02H5.155zM5.155 33.838h2.062v2.02H5.155zM21.649 33.838h2.062v2.02h-2.062zM21.649 38.889h2.062v2.02h-2.062zM38.145 9.596h2.062v2.02h-2.062zM38.145 14.646h2.062v2.02h-2.062zM38.145 19.697h2.062v2.02h-2.062zM38.145 24.242h2.062v2.02h-2.062zM38.145 29.293h2.062v2.02h-2.062zM38.145 34.343h2.062v2.02h-2.062zM38.145 38.889h2.062v2.02h-2.062zM18.041 4.545h2.062v2.02h-2.062zM18.041 9.596h2.062v2.02h-2.062zM9.794 24.242h2.062v2.02H9.794zM9.794 28.788h2.062v2.02H9.794zM9.794 33.838h2.062v2.02H9.794zM26.289 33.838h2.062v2.02h-2.062zM26.289 38.889h2.062v2.02h-2.062zM42.784 9.596h2.062v2.02h-2.062zM42.784 14.646h2.062v2.02h-2.062zM42.784 19.697h2.062v2.02h-2.062zM42.784 24.242h2.062v2.02h-2.062zM42.784 29.293h2.062v2.02h-2.062zM42.784 34.343h2.062v2.02h-2.062zM42.784 38.889h2.062v2.02h-2.062z"/></svg>