<svg xmlns="http://www.w3.org/2000/svg" width="54" height="54" fill="none"><path stroke="#243B73" stroke-width="2" d="M13.642 9.42H8.716c-2.686.967-1.313 4.806 1.194 4.677M42.448 17.484c-.15-.914-.687-2.742-1.642-2.742H32.3c-1.642.806-1.314 4.258 0 4.516h4.776c0 .968.716 2.258 1.79 2.258h11.792c1.642-.806 1.433-4.193 0-4.839h-6.269M46.328 40.71H52v-7.581c-.05-1.72-.895-4.839-3.731-4.839h-7.314m0 0v-4.677m0 4.677c-.563 1.66-1.494 4.19-2.429 6.29m-2.347 3.71c.58-.125 1.465-1.726 2.347-3.71m0 0H27.672c-2.836.646-3.582 3.227-3.582 5.807M16.776 44.742h20M39.612 44.903h3.433M20.955 48.452h3.433M25.88 48.29h12.538M26.03 52h7.313M38.717 4.097c1.492 0 3.104 2.645 2.985 4.193.298-1.344 1.313-4.032 2.985-4.032M7.672 40.71h36.567M34.239 21.355c1.94 1.774 2.985 7.097 0 10.968M21.043 38.362a10.926 10.926 0 0 1-4.267-2.39 12.02 12.02 0 0 1-2.946-4.102 12.909 12.909 0 0 1-1.083-5.06 12.936 12.936 0 0 1 .98-5.083 12.078 12.078 0 0 1 2.862-4.172c1.222-1.15 2.66-2 4.217-2.49 1.555-.49 3.191-.61 4.794-.35 1.603.26 3.134.892 4.489 1.854"/><path stroke="#243B73" stroke-width="2" d="M15.983 40.85a16.684 16.684 0 0 1-5.119-5.051 18.225 18.225 0 0 1-2.688-6.904 18.82 18.82 0 0 1 .24-7.486 18.018 18.018 0 0 1 3.12-6.688 16.423 16.423 0 0 1 5.429-4.658A15.177 15.177 0 0 1 23.7 8.294a15.108 15.108 0 0 1 6.801 1.447"/></svg>