<svg xmlns="http://www.w3.org/2000/svg" width="245" height="99" fill="none"><path fill="#6B7BB1" d="m63 64.5.973.233L63 64.5Zm90.5-6-.767-.641.767.641ZM98.5 8l.27.963.078-.022.072-.034L98.5 8ZM0 41.492A1 1 0 0 0 .992 42.5l9 .072a1 1 0 0 0 .016-2l-8-.064.064-8a1 1 0 1 0-2-.016l-.072 9Zm1.702.72a203.555 203.555 0 0 1 3.818-3.664l-1.365-1.461a205.567 205.567 0 0 0-3.856 3.7l1.403 1.426Zm11.776-10.62c2.99-2.421 5.8-4.46 8.477-6.183l-1.083-1.682c-2.745 1.767-5.613 3.85-8.652 6.31l1.258 1.554Zm17.657-11.147a54.027 54.027 0 0 1 9.894-3.216l-.436-1.952a56.018 56.018 0 0 0-10.256 3.334l.798 1.834Zm20.257-4.74c3.35-.302 6.816-.494 10.562-.74l-.131-1.995c-3.718.244-7.228.438-10.61.742l.18 1.992Zm21.18-1.633c3.295-.36 6.8-.839 10.572-1.51l-.35-1.969a156.617 156.617 0 0 1-10.44 1.491l.219 1.989Zm21.02-3.738a172.96 172.96 0 0 0 5.179-1.371l-.542-1.926c-1.756.494-3.462.945-5.119 1.356l.482 1.941Zm5.328-1.427a81.918 81.918 0 0 1 4.277-1.837l-.737-1.86a84.295 84.295 0 0 0-4.38 1.883l.84 1.814Zm13.102-4.723a63.931 63.931 0 0 1 9.125-1.669l-.212-1.989a65.902 65.902 0 0 0-9.411 1.721l.498 1.937Zm18.361-1.893c3.206.201 6.245.698 9.085 1.458l.517-1.932a48.38 48.38 0 0 0-9.477-1.522l-.125 1.996Zm17.602 4.819c2.777 1.509 5.237 3.326 7.334 5.398l1.406-1.423c-2.238-2.21-4.851-4.139-7.785-5.733l-.955 1.758Zm12.679 12.701a26.608 26.608 0 0 1 2.633 8.64l1.984-.253a28.602 28.602 0 0 0-2.83-9.286l-1.787.9Zm2.347 17.707c-.516 2.82-1.433 5.731-2.789 8.7l1.819.83c1.421-3.108 2.389-6.177 2.937-9.17l-1.967-.36Zm-7.439 16.67a60.263 60.263 0 0 1-2.839 3.67l1.535 1.283a62.197 62.197 0 0 0 2.933-3.793l-1.629-1.16Zm-2.839 3.67a92.176 92.176 0 0 1-3.044 3.46l1.469 1.357a95.218 95.218 0 0 0 3.11-3.534l-1.535-1.282Zm-9.604 9.954a125.287 125.287 0 0 1-7.063 5.962l1.234 1.574a127.273 127.273 0 0 0 7.175-6.057l-1.346-1.479Zm-14.536 11.413a136.477 136.477 0 0 1-7.827 4.934l1.008 1.728a138.177 138.177 0 0 0 7.942-5.007l-1.123-1.654Zm-15.976 9.31a110.44 110.44 0 0 1-8.451 3.725l.727 1.863a112.411 112.411 0 0 0 8.604-3.793l-.88-1.796Zm-17.181 6.632c-3.128.851-6.146 1.452-9.002 1.774l.224 1.987c2.973-.335 6.093-.958 9.303-1.831l-.525-1.93ZM77.408 96.92c-3.196-.459-5.971-1.457-8.236-3.035l-1.143 1.641c2.573 1.793 5.66 2.88 9.095 3.374l.285-1.98Zm-13.53-9.805c-.972-2.404-1.542-5.31-1.613-8.778l-2 .041c.076 3.661.679 6.815 1.758 9.487l1.855-.75Zm-.844-17.85a72.97 72.97 0 0 1 .939-4.531l-1.945-.466a74.523 74.523 0 0 0-.965 4.657l1.971.34Zm.939-4.531c.388-1.623.86-3.198 1.413-4.727l-1.881-.68a46.187 46.187 0 0 0-1.477 4.941l1.945.466Zm5.769-13.544c1.756-2.743 3.812-5.31 6.136-7.71l-1.436-1.391c-2.41 2.488-4.551 5.16-6.385 8.023l1.685 1.078Zm13.604-14.208a76.656 76.656 0 0 1 8.384-5.367l-.971-1.748a78.668 78.668 0 0 0-8.602 5.507l1.19 1.608Zm17.338-9.735a121.603 121.603 0 0 1 9.348-3.54l-.634-1.897a123.648 123.648 0 0 0-9.501 3.599l.787 1.838Zm18.95-6.379a175.88 175.88 0 0 1 9.769-2.24l-.393-1.96a178.03 178.03 0 0 0-9.88 2.265l.504 1.935Zm19.649-3.961c3.29-.492 6.615-.913 9.961-1.265l-.21-1.989a231.95 231.95 0 0 0-10.047 1.276l.296 1.978Zm19.964-2.116c3.344-.219 6.693-.374 10.031-.47l-.057-1.999a274.04 274.04 0 0 0-10.105.474l.131 1.995Zm20.079-.58c3.381.022 6.735.103 10.044.24l.082-1.999a292.794 292.794 0 0 0-10.113-.24l-.013 2Zm20.069.827c3.411.26 6.752.58 10.004.951l.227-1.987a270.216 270.216 0 0 0-10.079-.958l-.152 1.994Zm19.955 2.295c3.431.539 6.721 1.138 9.84 1.791l.41-1.957a200.098 200.098 0 0 0-9.94-1.81l-.31 1.976Zm19.571 4.157c1.667.47 3.257.957 4.763 1.46l.633-1.898a108.448 108.448 0 0 0-4.853-1.487l-.543 1.925Z"/></svg>