<svg xmlns="http://www.w3.org/2000/svg" width="401" height="227" fill="none"><path fill="#6B7BB1" d="M224.672 30.947c59.086-13.736 116.832-.862 138.318 7.291 0 0-9.855-6.387-25.318-10.25-15.464-3.861-34.868-4.862-34.868-4.862-68.756-7.164-127.715 13.61-157.783 24.47-37.96 11.924-93.302 31.896-123.846 74.816-29.568 41.55-4.749 70.611 35.543 83.442 40.292 12.831 121.877.892 175.086-10.674 71.488-15.54 140.566-70.594 155.574-101.21 10.377-18.803 2.718-36.419-4.598-41.65l-12.831-7.954c43.369 30.9-.08 72.948-34.4 97.316-102.728 59.376-178.794 64.625-270.777 54.509-71.472-16.608-50.99-66.777-17.292-94.601 26.133-25.005 121.596-57.718 177.192-70.643Z"/><ellipse cx="181.722" cy="67.845" fill="#243B73" rx="181.722" ry="67.845" transform="matrix(-.96818 .25027 .22979 .97324 359.257 1.747)"/></svg>