<svg xmlns="http://www.w3.org/2000/svg" width="174" height="70" fill="none"><path fill="#6B7BB1" d="m57 2.5.218.976L57 2.5ZM.023 32.286a1 1 0 0 0 .763 1.19l8.792 1.926a1 1 0 0 0 .427-1.954L2.19 31.737l1.711-7.815a1 1 0 1 0-1.953-.428L.023 32.286Zm1.516 1.056c1.545-.99 3.043-1.947 4.494-2.87l-1.074-1.688c-1.453.925-2.952 1.883-4.499 2.874l1.08 1.684Zm13.503-8.561a939.008 939.008 0 0 1 9.07-5.613l-1.041-1.707a939.896 939.896 0 0 0-9.09 5.624l1.061 1.696Zm18.186-11.066c3.742-2.184 6.773-3.87 9.26-5.177l-.93-1.77c-2.52 1.323-5.579 3.025-9.339 5.22l1.009 1.727Zm18.79-9.352a16.72 16.72 0 0 1 2.617-.494c.775-.093 1.588-.17 2.583-.393l-.437-1.952c-.872.196-1.562.26-2.384.36-.822.098-1.721.225-2.907.55l.529 1.93Zm5.2-.887a46.625 46.625 0 0 1 4.796-.814L61.783.675c-1.662.194-3.33.475-5.002.85l.437 1.95Zm14.512-.941c3.255.286 6.455.893 9.57 1.77l.543-1.925A54.203 54.203 0 0 0 71.904.543l-.175 1.992Zm18.706 5.198a65.717 65.717 0 0 1 8.503 4.823l1.111-1.663a67.682 67.682 0 0 0-8.762-4.969l-.852 1.81Zm16.239 10.827a67.809 67.809 0 0 1 6.803 7.03l1.535-1.282a69.69 69.69 0 0 0-7.004-7.238l-1.334 1.49ZM119.1 33.568c1.742 3.004 3.058 5.992 3.894 8.852l1.919-.56c-.887-3.04-2.274-6.176-4.082-9.295l-1.731 1.003Zm4.752 18.233c-.487 3.125-1.897 5.806-4.367 7.844l1.273 1.543c2.882-2.378 4.515-5.516 5.07-9.079l-1.976-.308Zm-12.936 11.511c-1.47.276-3.08.46-4.836.541l.092 1.998a36.865 36.865 0 0 0 5.113-.573l-.369-1.966Zm-4.836.541a84.5 84.5 0 0 1-4.551.087l-.016 2a86.546 86.546 0 0 0 4.659-.09l-.092-1.997Zm-13.626-.496a73.66 73.66 0 0 1-8.921-1.647l-.486 1.94a75.655 75.655 0 0 0 9.164 1.692l.243-1.985Zm-17.548-4.43a57.697 57.697 0 0 1-8.104-3.994l-1.026 1.716a59.697 59.697 0 0 0 8.385 4.134l.745-1.856Zm-15.371-9.305c-2.38-2.137-4.342-4.404-5.848-6.724l-1.678 1.089c1.613 2.484 3.695 4.883 6.19 7.123l1.336-1.488Zm-9.18-14.808c-.515-2.917-.26-5.786.837-8.484l-1.853-.753c-1.249 3.071-1.53 6.324-.954 9.584l1.97-.347Zm6.025-15.38a27.081 27.081 0 0 1 3.632-2.575l-1.025-1.718a29.047 29.047 0 0 0-3.9 2.766l1.293 1.526Zm3.632-2.575c1.33-.794 2.834-1.52 4.493-2.174l-.733-1.86c-1.744.686-3.348 1.459-4.785 2.317l1.025 1.717Zm14.29-4.865c3.17-.577 6.591-.973 10.191-1.176l-.112-1.997c-3.674.208-7.178.612-10.438 1.206l.359 1.968Zm20.45-1.246c3.35.134 6.781.418 10.245.859l.252-1.984c-3.52-.448-7.009-.737-10.417-.874l-.08 1.998Zm20.383 2.588c3.344.718 6.672 1.584 9.943 2.602l.595-1.91a116.083 116.083 0 0 0-10.118-2.648l-.42 1.956Zm19.58 6.135a85.614 85.614 0 0 1 9.171 4.56l.999-1.733a87.567 87.567 0 0 0-9.385-4.666l-.785 1.84Zm17.637 10.273c2.703 2.14 5.186 4.467 7.399 6.986l1.503-1.32c-2.3-2.617-4.872-5.027-7.661-7.234l-1.241 1.568ZM165.601 45a43.114 43.114 0 0 1 3.833 9.356l1.927-.535a45.087 45.087 0 0 0-4.01-9.79l-1.75.969Zm5.418 19.363a50.805 50.805 0 0 1-.018 5.085l1.997.105c.095-1.804.1-3.565.019-5.284l-1.998.094Z"/></svg>